<svg xmlns="http://www.w3.org/2000/svg" xmlns:xlink="http://www.w3.org/1999/xlink" viewBox="0 0 164 35"><path d="M 26.262 15.599 C 25.363 16.5 24.914 17.753 25.037 19.017 L 25.016 18.996 C 25.142 20.483 24.603 21.95 23.543 23.006 C 22.484 24.061 21.011 24.598 19.517 24.472 L 19.538 24.493 C 17.73 24.325 16.01 25.305 15.239 26.942 C 14.467 28.579 14.809 30.523 16.094 31.801 C 17.378 33.079 19.33 33.418 20.973 32.648 C 22.616 31.878 23.599 30.165 23.429 28.364 L 23.451 28.385 C 23.325 26.898 23.863 25.431 24.923 24.375 C 25.983 23.32 27.456 22.783 28.95 22.909 L 28.927 22.888 C 30.916 23.067 32.766 21.86 33.397 19.973 C 34.027 18.087 33.271 16.016 31.571 14.973 C 29.871 13.931 27.674 14.19 26.266 15.599 Z M 17.621 21.742 L 17.598 21.721 C 18.868 21.848 20.128 21.401 21.031 20.502 C 21.934 19.604 22.384 18.349 22.257 17.085 L 22.279 17.106 C 22.154 15.618 22.693 14.152 23.752 13.096 C 24.812 12.041 26.285 11.504 27.778 11.629 L 27.756 11.608 C 29.564 11.777 31.285 10.799 32.058 9.162 C 32.831 7.525 32.49 5.581 31.205 4.302 C 29.921 3.023 27.969 2.683 26.325 3.453 C 24.682 4.223 23.699 5.936 23.869 7.737 L 23.848 7.715 C 23.974 9.203 23.435 10.67 22.376 11.725 C 21.316 12.781 19.843 13.317 18.349 13.192 L 18.37 13.214 C 17.101 13.087 15.841 13.534 14.938 14.432 C 14.035 15.331 13.585 16.585 13.712 17.85 L 13.69 17.829 C 13.816 19.316 13.277 20.783 12.217 21.838 C 11.158 22.893 9.685 23.43 8.192 23.305 L 8.213 23.326 C 6.405 23.158 4.685 24.136 3.913 25.773 C 3.141 27.409 3.482 29.352 4.765 30.631 C 6.049 31.909 8 32.249 9.643 31.48 C 11.287 30.711 12.269 28.998 12.1 27.197 L 12.122 27.218 C 11.996 25.731 12.535 24.264 13.594 23.208 C 14.654 22.153 16.127 21.616 17.621 21.742 Z M 9.77 19.401 C 10.669 18.5 11.117 17.247 10.994 15.983 L 11.016 16.004 C 10.89 14.517 11.429 13.049 12.489 11.993 C 13.55 10.938 15.023 10.402 16.517 10.528 L 16.495 10.507 C 18.303 10.676 20.022 9.697 20.795 8.061 C 21.567 6.424 21.226 4.481 19.942 3.202 C 18.659 1.924 16.707 1.584 15.064 2.354 C 13.421 3.123 12.439 4.836 12.608 6.636 L 12.587 6.615 C 12.713 8.102 12.175 9.57 11.115 10.625 C 10.055 11.681 8.582 12.217 7.088 12.091 L 7.109 12.112 C 5.122 11.935 3.273 13.142 2.644 15.028 C 2.015 16.913 2.771 18.982 4.47 20.025 C 6.169 21.067 8.364 20.808 9.772 19.401 Z M 46.057 7.764 L 49.536 7.764 L 49.536 24.626 L 46.057 24.626 Z M 51.507 18.852 C 51.496 16.373 52.987 14.133 55.284 13.177 C 57.58 12.221 60.229 12.739 61.992 14.488 C 63.756 16.238 64.286 18.873 63.336 21.164 C 62.386 23.455 60.142 24.95 57.653 24.949 C 56.021 24.968 54.451 24.333 53.295 23.186 C 52.139 22.039 51.494 20.477 51.507 18.852 Z M 60.32 18.852 C 60.281 17.394 59.068 16.239 57.603 16.266 C 56.138 16.293 54.968 17.49 54.982 18.95 C 54.996 20.409 56.188 21.584 57.653 21.583 C 58.379 21.603 59.081 21.319 59.588 20.8 C 60.094 20.281 60.36 19.575 60.32 18.852 Z M 77.666 13.077 L 77.666 24.044 C 77.666 27.924 74.627 29.565 71.543 29.565 C 69.329 29.729 67.208 28.649 66.046 26.765 L 69.015 25.055 C 69.505 26.042 70.559 26.622 71.659 26.51 C 72.354 26.606 73.055 26.382 73.565 25.902 C 74.075 25.421 74.337 24.736 74.279 24.039 L 74.279 22.983 C 73.453 23.99 72.197 24.547 70.893 24.485 C 67.695 24.407 65.144 21.803 65.144 18.618 C 65.144 15.433 67.695 12.829 70.893 12.752 C 72.196 12.69 73.453 13.247 74.279 14.253 L 74.279 13.075 Z M 74.28 18.62 C 74.328 17.478 73.674 16.421 72.627 15.951 C 71.58 15.481 70.352 15.692 69.524 16.484 C 68.696 17.276 68.435 18.49 68.864 19.55 C 69.293 20.611 70.327 21.305 71.475 21.303 C 72.214 21.355 72.94 21.092 73.475 20.581 C 74.009 20.07 74.302 19.358 74.28 18.62 Z M 79.636 18.852 C 79.626 16.374 81.117 14.134 83.413 13.179 C 85.709 12.224 88.357 12.742 90.12 14.49 C 91.883 16.239 92.413 18.874 91.463 21.165 C 90.514 23.455 88.271 24.949 85.783 24.949 C 84.151 24.968 82.58 24.333 81.424 23.186 C 80.268 22.039 79.624 20.477 79.636 18.852 Z M 88.45 18.852 C 88.41 17.394 87.197 16.239 85.732 16.266 C 84.267 16.293 83.098 17.49 83.112 18.95 C 83.125 20.409 84.317 21.584 85.783 21.583 C 86.509 21.603 87.211 21.319 87.717 20.8 C 88.224 20.281 88.49 19.575 88.45 18.852 Z M 93.551 9.982 C 93.551 8.834 94.486 7.903 95.639 7.903 C 96.792 7.903 97.726 8.834 97.726 9.982 C 97.726 11.13 96.792 12.061 95.639 12.061 C 94.491 12.05 93.563 11.125 93.551 9.982 Z M 93.903 13.077 L 97.383 13.077 L 97.383 24.627 L 93.898 24.627 Z M 112.406 18.852 C 112.487 20.394 111.948 21.904 110.907 23.049 C 109.867 24.193 108.411 24.877 106.862 24.949 C 105.557 25.02 104.288 24.502 103.408 23.54 L 103.408 29.246 L 99.929 29.246 L 99.929 13.077 L 103.408 13.077 L 103.408 14.162 C 104.289 13.2 105.557 12.683 106.862 12.754 C 108.411 12.826 109.867 13.51 110.908 14.655 C 111.948 15.799 112.487 17.31 112.406 18.852 Z M 108.926 18.852 C 108.889 17.344 107.636 16.147 106.121 16.173 C 104.606 16.198 103.395 17.435 103.408 18.944 C 103.42 20.453 104.652 21.67 106.168 21.67 C 106.922 21.703 107.654 21.414 108.181 20.876 C 108.708 20.338 108.979 19.602 108.926 18.852 Z M 123.142 21.161 C 123.142 23.818 120.823 24.949 118.319 24.949 C 116.248 25.136 114.273 24.047 113.332 22.201 L 116.346 20.491 C 116.598 21.351 117.418 21.919 118.314 21.854 C 119.148 21.854 119.567 21.6 119.567 21.139 C 119.567 19.867 113.861 20.538 113.861 16.542 C 113.861 14.023 115.995 12.754 118.407 12.754 C 120.254 12.696 121.986 13.642 122.929 15.225 L 119.96 16.819 C 119.695 16.2 119.083 15.799 118.407 15.803 C 117.804 15.803 117.432 16.036 117.432 16.449 C 117.437 17.766 123.142 16.888 123.142 21.161 Z M 135.851 13.077 L 135.851 24.627 L 132.371 24.627 L 132.371 23.541 C 131.557 24.513 130.324 25.037 129.056 24.95 C 126.713 24.95 124.722 23.288 124.722 20.167 L 124.722 13.077 L 128.201 13.077 L 128.201 19.66 C 128.141 20.217 128.331 20.772 128.721 21.176 C 129.11 21.58 129.657 21.794 130.218 21.76 C 131.494 21.76 132.375 21.021 132.375 19.381 L 132.375 13.081 Z M 155.8 17.535 L 155.8 24.626 L 152.321 24.626 L 152.321 17.835 C 152.321 16.68 151.764 15.941 150.652 15.941 C 149.492 15.941 148.842 16.75 148.842 18.113 L 148.842 24.626 L 145.364 24.626 L 145.364 17.835 C 145.364 16.68 144.807 15.941 143.693 15.941 C 142.534 15.941 141.885 16.75 141.885 18.113 L 141.885 24.626 L 138.405 24.626 L 138.405 13.076 L 141.885 13.076 L 141.885 14.138 C 142.618 13.181 143.788 12.66 144.992 12.753 C 146.203 12.695 147.356 13.273 148.03 14.277 C 148.813 13.227 150.084 12.651 151.393 12.753 C 154.056 12.754 155.8 14.648 155.8 17.535 Z M 158.743 13.006 C 160.169 13.006 161.324 11.855 161.324 10.435 C 161.324 9.015 160.169 7.863 158.743 7.863 C 157.317 7.863 156.161 9.015 156.161 10.435 C 156.161 11.855 157.317 13.006 158.743 13.006 Z" fill="rgb(57,65,73)"></path></svg>