<svg xmlns="http://www.w3.org/2000/svg" xmlns:xlink="http://www.w3.org/1999/xlink" viewBox="0 0 155 40"><path d="M 46.087 12.588 L 49.837 12.588 L 49.837 27.75 L 46.087 27.75 Z M 51.325 22.025 C 51.325 18.275 53.625 16.038 57.175 16.038 C 60.725 16.038 63.025 18.275 63.025 22.025 C 63.025 25.775 60.775 28.025 57.175 28.025 C 53.575 28.025 51.325 25.838 51.325 22.025 Z M 59.262 22.025 C 59.262 19.963 58.45 18.75 57.175 18.75 C 55.9 18.75 55.1 20 55.1 22.025 C 55.1 24.05 55.887 25.275 57.175 25.275 C 58.462 25.275 59.262 24.125 59.262 22.038 Z M 64.438 28.487 L 68.037 28.487 C 68.389 29.269 69.213 29.727 70.062 29.612 C 71.487 29.612 72.237 28.837 72.237 27.712 L 72.237 25.612 L 72.162 25.612 C 71.551 26.929 70.2 27.741 68.75 27.662 C 66.013 27.662 64.2 25.575 64.2 21.988 C 64.2 18.4 65.925 16.137 68.8 16.137 C 70.296 16.079 71.672 16.956 72.25 18.337 L 72.25 16.25 L 76 16.25 L 76 27.625 C 76 30.363 73.587 32.063 70.025 32.063 C 66.712 32.063 64.65 30.575 64.438 28.5 Z M 72.25 22.012 C 72.25 20.188 71.413 19.038 70.088 19.038 C 68.763 19.038 67.95 20.175 67.95 22.012 C 67.95 23.85 68.75 24.887 70.088 24.887 C 71.425 24.887 72.25 23.875 72.25 22.025 Z M 77.412 22.012 C 77.412 18.262 79.712 16.025 83.262 16.025 C 86.812 16.025 89.125 18.262 89.125 22.012 C 89.125 25.762 86.875 28.012 83.262 28.012 C 79.65 28.012 77.412 25.838 77.412 22.025 Z M 85.35 22.012 C 85.35 19.95 84.538 18.737 83.263 18.737 C 81.987 18.737 81.25 20 81.25 22.037 C 81.25 24.075 82.038 25.287 83.313 25.287 C 84.588 25.287 85.35 24.125 85.35 22.037 Z M 90.55 13.525 C 90.53 12.751 90.979 12.041 91.687 11.727 C 92.395 11.413 93.223 11.557 93.783 12.092 C 94.343 12.627 94.525 13.447 94.244 14.169 C 93.963 14.891 93.274 15.372 92.5 15.387 C 91.993 15.422 91.494 15.244 91.123 14.895 C 90.753 14.546 90.545 14.059 90.55 13.55 Z M 90.55 16.275 L 94.3 16.275 L 94.3 27.75 L 90.55 27.75 Z M 107.913 22.012 C 107.913 25.762 106.25 27.9 103.4 27.9 C 101.903 27.996 100.505 27.147 99.9 25.775 L 99.825 25.775 L 99.825 31.425 L 96.075 31.425 L 96.075 16.25 L 99.825 16.25 L 99.825 18.3 L 99.9 18.3 C 100.477 16.905 101.866 16.02 103.375 16.088 C 106.25 16.138 107.963 18.288 107.963 22.038 Z M 104.162 22.012 C 104.162 20.187 103.325 19.025 102.013 19.025 C 100.7 19.025 99.862 20.2 99.85 22.012 C 99.837 23.825 100.7 24.987 102.013 24.987 C 103.325 24.987 104.162 23.85 104.162 22.037 Z M 114.35 16.012 C 117.462 16.012 119.35 17.487 119.438 19.85 L 116.025 19.85 C 116.025 19.037 115.35 18.525 114.313 18.525 C 113.275 18.525 112.812 18.925 112.812 19.512 C 112.812 20.1 113.225 20.287 114.062 20.462 L 116.462 20.95 C 118.75 21.438 119.725 22.362 119.725 24.1 C 119.725 26.475 117.562 28 114.375 28 C 111.188 28 109.1 26.475 108.938 24.137 L 112.55 24.137 C 112.663 24.988 113.338 25.487 114.438 25.487 C 115.538 25.487 116.038 25.125 116.038 24.525 C 116.038 23.925 115.688 23.8 114.788 23.612 L 112.625 23.15 C 110.388 22.687 109.212 21.5 109.212 19.75 C 109.237 17.5 111.25 16.037 114.35 16.037 Z M 132.238 27.725 L 128.625 27.725 L 128.625 25.587 L 128.55 25.587 C 128.141 27.066 126.757 28.06 125.225 27.975 C 124.072 28.041 122.948 27.603 122.142 26.776 C 121.337 25.949 120.929 24.813 121.025 23.662 L 121.025 16.25 L 124.775 16.25 L 124.775 22.8 C 124.775 24.163 125.475 24.888 126.637 24.888 C 127.189 24.888 127.714 24.651 128.079 24.238 C 128.441 23.822 128.608 23.272 128.538 22.725 L 128.538 16.25 L 132.288 16.25 Z M 134.05 16.25 L 137.675 16.25 L 137.675 18.462 L 137.75 18.462 C 138.159 17.006 139.5 16.01 141.013 16.038 C 142.564 15.913 143.951 17.001 144.2 18.538 L 144.275 18.538 C 144.74 16.996 146.192 15.967 147.8 16.038 C 149.377 15.983 150.809 16.953 151.344 18.438 C 151.516 18.918 151.587 19.429 151.55 19.938 L 151.55 27.75 L 147.8 27.75 L 147.8 20.938 C 147.8 19.688 147.238 19.113 146.188 19.113 C 145.714 19.108 145.261 19.31 144.947 19.665 C 144.633 20.019 144.489 20.493 144.55 20.962 L 144.55 27.75 L 140.988 27.75 L 140.988 20.887 C 140.988 19.738 140.425 19.113 139.4 19.113 C 138.921 19.112 138.464 19.317 138.146 19.675 C 137.828 20.034 137.679 20.512 137.738 20.988 L 137.738 27.75 L 133.988 27.75 Z M 35.6 13.275 C 34.964 11.82 34.122 10.465 33.1 9.25 C 28.977 4.202 22.321 1.973 15.989 3.519 C 9.658 5.065 4.778 10.112 3.446 16.492 C 2.114 22.872 4.566 29.449 9.75 33.4 C 10.969 34.347 12.315 35.117 13.75 35.688 C 15.761 36.512 17.914 36.936 20.088 36.938 C 29.429 36.917 36.993 29.342 37 20 C 37.003 17.686 36.527 15.396 35.6 13.275 Z M 20.075 6.488 C 22.028 6.488 23.955 6.914 25.725 7.738 C 25.293 7.924 24.84 8.054 24.375 8.125 C 21.234 8.58 18.767 11.047 18.313 14.188 C 18.112 15.955 16.697 17.339 14.925 17.5 C 11.784 17.955 9.317 20.422 8.863 23.563 C 8.788 24.378 8.44 25.144 7.875 25.738 C 5.895 21.554 6.196 16.647 8.674 12.737 C 11.151 8.827 15.459 6.459 20.088 6.463 Z M 9.738 28.75 C 9.887 28.613 10.037 28.488 10.188 28.338 C 11.3 27.259 12.013 25.836 12.212 24.3 C 12.293 23.437 12.679 22.63 13.3 22.025 C 13.898 21.403 14.702 21.02 15.563 20.95 C 18.703 20.495 21.17 18.028 21.625 14.888 C 21.679 13.984 22.067 13.134 22.712 12.5 C 23.325 11.89 24.137 11.521 25 11.463 C 26.405 11.269 27.715 10.645 28.75 9.675 C 29.928 10.653 30.927 11.829 31.7 13.15 C 31.652 13.214 31.598 13.273 31.538 13.325 C 30.941 13.953 30.137 14.343 29.275 14.425 C 26.13 14.872 23.659 17.343 23.213 20.488 C 23.031 22.262 21.625 23.662 19.85 23.838 C 16.701 24.289 14.221 26.753 13.75 29.9 C 13.683 30.511 13.473 31.097 13.137 31.613 C 11.855 30.851 10.706 29.884 9.738 28.75 Z M 20.075 33.575 C 18.807 33.576 17.544 33.4 16.325 33.05 C 16.742 32.273 17.013 31.425 17.125 30.55 C 17.306 28.78 18.705 27.381 20.475 27.2 C 23.621 26.75 26.094 24.282 26.55 21.137 C 26.731 19.368 28.13 17.968 29.9 17.787 C 31.053 17.638 32.151 17.208 33.1 16.537 C 34.168 20.585 33.301 24.9 30.753 28.221 C 28.204 31.542 24.261 33.496 20.075 33.512 Z" fill="rgb(57,65,73)"></path></svg>