<svg xmlns="http://www.w3.org/2000/svg" xmlns:xlink="http://www.w3.org/1999/xlink" viewBox="0 0 157 42"><path d="M 53.321 30.246 C 52.613 30.285 51.913 30.082 51.334 29.67 C 50.843 29.302 50.563 28.715 50.585 28.098 L 50.585 16.974 C 50.573 16.879 50.606 16.783 50.673 16.715 C 50.741 16.647 50.835 16.614 50.93 16.626 L 52.928 16.626 C 53.154 16.626 53.261 16.746 53.261 16.974 L 53.261 27.234 C 53.261 27.69 53.463 27.918 53.88 27.918 C 54.056 27.925 54.233 27.905 54.403 27.858 C 54.641 27.858 54.772 27.93 54.783 28.146 L 54.962 29.646 C 54.979 29.734 54.958 29.826 54.903 29.898 C 54.848 29.969 54.766 30.013 54.676 30.018 C 54.239 30.164 53.781 30.241 53.321 30.246 Z M 64.56 28.962 C 62.489 30.688 59.495 30.688 57.424 28.962 C 55.587 27.091 55.587 24.077 57.424 22.206 C 59.498 20.489 62.486 20.489 64.56 22.206 C 66.352 24.091 66.352 27.065 64.56 28.95 Z M 59.303 27.378 C 60.268 28.26 61.74 28.26 62.705 27.378 C 63.577 26.367 63.577 24.861 62.705 23.85 C 61.74 22.968 60.268 22.968 59.303 23.85 C 58.431 24.861 58.431 26.367 59.303 27.378 Z M 76.906 21.222 C 77.132 21.222 77.239 21.342 77.239 21.57 L 77.239 30.174 C 77.281 31.35 76.796 32.483 75.919 33.258 C 74.957 34.085 73.721 34.514 72.458 34.458 C 71.317 34.498 70.192 34.184 69.235 33.558 C 68.408 33.01 67.844 32.141 67.677 31.158 C 67.677 30.918 67.677 30.81 67.998 30.81 L 69.996 30.81 C 70.169 30.816 70.323 30.924 70.388 31.086 C 70.518 31.45 70.776 31.753 71.114 31.938 C 71.525 32.152 71.982 32.26 72.446 32.25 C 73.01 32.281 73.563 32.082 73.98 31.698 C 74.362 31.296 74.564 30.754 74.539 30.198 L 74.539 29.442 C 73.824 29.973 72.953 30.247 72.065 30.222 C 70.81 30.268 69.59 29.796 68.688 28.914 C 66.905 27.054 66.905 24.102 68.688 22.242 C 69.594 21.368 70.812 20.901 72.065 20.946 C 72.979 20.922 73.873 21.214 74.599 21.774 L 74.599 21.582 C 74.588 21.489 74.619 21.396 74.683 21.328 C 74.748 21.261 74.839 21.226 74.932 21.234 Z M 72.291 28.086 C 72.912 28.106 73.509 27.846 73.921 27.378 C 74.734 26.318 74.734 24.838 73.921 23.778 C 73.51 23.316 72.918 23.062 72.303 23.082 C 71.676 23.062 71.072 23.321 70.65 23.79 C 70.212 24.283 69.982 24.929 70.008 25.59 C 69.986 26.245 70.212 26.884 70.638 27.378 C 71.061 27.846 71.664 28.104 72.291 28.086 Z M 87.504 28.962 C 85.429 30.679 82.442 30.679 80.367 28.962 C 78.575 27.073 78.575 24.095 80.367 22.206 C 82.443 20.494 85.428 20.494 87.504 22.206 C 89.295 24.091 89.295 27.065 87.504 28.95 Z M 82.235 27.378 C 82.695 27.82 83.312 28.058 83.947 28.038 C 84.579 28.055 85.191 27.817 85.648 27.378 C 86.505 26.361 86.505 24.867 85.648 23.85 C 85.191 23.411 84.579 23.173 83.947 23.19 C 83.312 23.17 82.695 23.408 82.235 23.85 C 81.378 24.867 81.378 26.361 82.235 27.378 Z M 93.141 19.182 C 92.491 19.756 91.52 19.756 90.87 19.182 C 90.582 18.908 90.419 18.526 90.419 18.126 C 90.419 17.726 90.582 17.344 90.87 17.07 C 91.526 16.511 92.486 16.511 93.141 17.07 C 93.43 17.344 93.594 17.726 93.594 18.126 C 93.594 18.526 93.43 18.908 93.141 19.182 Z M 93.391 30.246 C 92.684 30.281 91.986 30.078 91.405 29.67 C 90.921 29.297 90.647 28.712 90.667 28.098 L 90.667 21.57 C 90.656 21.475 90.688 21.379 90.756 21.311 C 90.823 21.243 90.918 21.21 91.012 21.222 L 93.011 21.222 C 93.237 21.222 93.344 21.342 93.344 21.57 L 93.344 27.234 C 93.344 27.69 93.546 27.918 93.95 27.918 C 94.131 27.924 94.311 27.904 94.485 27.858 C 94.723 27.858 94.854 27.93 94.866 28.146 L 95.044 29.646 C 95.062 29.734 95.04 29.826 94.986 29.898 C 94.931 29.969 94.848 30.013 94.759 30.018 C 94.318 30.164 93.855 30.241 93.391 30.246 Z M 102.395 20.934 C 103.656 20.884 104.883 21.351 105.797 22.23 C 107.542 24.119 107.542 27.049 105.797 28.938 C 104.888 29.825 103.658 30.298 102.395 30.246 C 101.504 30.266 100.631 29.992 99.909 29.466 L 99.909 33.798 C 99.909 34.026 99.79 34.134 99.564 34.134 L 97.566 34.134 C 97.473 34.151 97.378 34.122 97.312 34.055 C 97.245 33.987 97.216 33.891 97.233 33.798 L 97.233 23.958 C 97.261 23.763 97.197 23.566 97.058 23.426 C 96.92 23.287 96.725 23.221 96.531 23.25 L 96.139 23.25 C 95.877 23.25 95.746 23.154 95.746 22.962 L 95.746 21.546 C 95.733 21.365 95.847 21.2 96.02 21.15 C 96.431 20.999 96.867 20.926 97.304 20.934 C 98.197 20.854 99.049 21.329 99.457 22.134 C 100.231 21.344 101.294 20.91 102.395 20.934 Z M 100.539 27.378 C 100.968 27.83 101.561 28.086 102.181 28.086 C 102.801 28.086 103.394 27.83 103.822 27.378 C 104.269 26.875 104.504 26.217 104.476 25.542 C 104.508 24.867 104.272 24.207 103.822 23.706 C 103.394 23.254 102.801 22.999 102.181 22.999 C 101.561 22.999 100.968 23.254 100.539 23.706 C 100.107 24.216 99.881 24.872 99.909 25.542 C 99.885 26.212 100.11 26.867 100.539 27.378 Z M 112.719 30.246 C 111.651 30.29 110.592 30.033 109.662 29.502 C 108.906 29.042 108.398 28.261 108.282 27.378 C 108.282 27.138 108.366 27.018 108.627 27.018 L 110.376 27.018 C 110.545 27.025 110.697 27.127 110.768 27.282 C 111.018 27.93 111.672 28.254 112.719 28.254 C 113.084 28.271 113.448 28.197 113.777 28.038 C 114.009 27.932 114.165 27.706 114.182 27.45 C 114.182 27.138 113.992 26.922 113.611 26.778 C 113.159 26.626 112.693 26.526 112.219 26.478 C 111.658 26.414 111.102 26.314 110.554 26.178 C 110.021 26.056 109.536 25.776 109.163 25.374 C 108.718 24.821 108.52 24.107 108.617 23.402 C 108.714 22.697 109.097 22.064 109.674 21.654 C 110.531 21.103 111.537 20.835 112.552 20.886 C 113.535 20.852 114.508 21.098 115.359 21.594 C 116.054 21.991 116.535 22.683 116.668 23.478 C 116.668 23.718 116.561 23.838 116.347 23.838 L 114.586 23.838 C 114.435 23.847 114.293 23.761 114.229 23.622 C 114.112 23.338 113.89 23.11 113.611 22.986 C 113.296 22.82 112.944 22.737 112.588 22.746 C 112.239 22.727 111.892 22.797 111.577 22.95 C 111.35 23.038 111.2 23.257 111.196 23.502 C 111.212 23.839 111.444 24.126 111.767 24.21 C 112.224 24.384 112.699 24.504 113.183 24.57 C 113.739 24.643 114.291 24.748 114.836 24.882 C 115.369 25.004 115.854 25.284 116.228 25.686 C 116.632 26.134 116.841 26.725 116.81 27.33 C 116.831 28.174 116.411 28.967 115.704 29.418 C 114.816 29.994 113.774 30.282 112.719 30.246 Z M 129.382 29.646 C 129.403 29.777 129.343 29.908 129.229 29.976 C 129.192 29.998 129.151 30.012 129.109 30.018 C 128.674 30.161 128.221 30.238 127.765 30.246 C 126.845 30.343 125.943 29.946 125.386 29.202 C 124.546 29.931 123.459 30.305 122.353 30.246 C 121.314 30.294 120.303 29.898 119.57 29.154 C 118.842 28.375 118.46 27.331 118.511 26.262 L 118.511 21.57 C 118.511 21.342 118.618 21.222 118.844 21.222 L 120.842 21.222 C 121.068 21.222 121.175 21.342 121.175 21.57 L 121.175 25.902 C 121.154 26.442 121.336 26.97 121.687 27.378 C 122.041 27.756 122.539 27.962 123.055 27.942 C 123.581 27.965 124.095 27.775 124.482 27.414 C 124.849 27.033 125.042 26.516 125.017 25.986 L 125.017 21.57 C 125.017 21.342 125.124 21.222 125.35 21.222 L 127.372 21.222 C 127.598 21.222 127.705 21.342 127.705 21.57 L 127.705 27.222 C 127.705 27.69 127.907 27.918 128.3 27.918 C 128.484 27.925 128.669 27.905 128.847 27.858 C 128.938 27.832 129.036 27.849 129.113 27.905 C 129.19 27.962 129.236 28.05 129.24 28.146 Z M 148.282 29.646 C 148.292 29.689 148.294 29.734 148.285 29.778 C 148.26 29.913 148.145 30.013 148.008 30.018 C 147.566 30.162 147.105 30.24 146.64 30.246 C 145.933 30.283 145.234 30.08 144.654 29.67 C 144.145 29.313 143.846 28.723 143.857 28.098 L 143.857 25.278 C 143.882 24.74 143.704 24.212 143.358 23.802 C 143.019 23.423 142.531 23.216 142.026 23.238 C 141.57 23.222 141.132 23.416 140.836 23.766 C 140.522 24.168 140.362 24.671 140.384 25.182 L 140.384 29.61 C 140.384 29.838 140.277 29.958 140.051 29.958 L 138.041 29.958 C 137.946 29.97 137.851 29.937 137.784 29.868 C 137.717 29.8 137.685 29.705 137.696 29.61 L 137.696 25.278 C 137.722 24.746 137.557 24.222 137.232 23.802 C 136.939 23.445 136.503 23.238 136.043 23.238 C 135.552 23.218 135.076 23.41 134.735 23.766 C 134.394 24.155 134.219 24.664 134.247 25.182 L 134.247 29.61 C 134.259 29.705 134.227 29.801 134.159 29.868 C 134.091 29.936 133.997 29.969 133.902 29.958 L 131.963 29.958 C 131.737 29.958 131.63 29.838 131.63 29.61 L 131.63 23.958 C 131.661 23.762 131.596 23.564 131.455 23.425 C 131.317 23.286 131.122 23.221 130.928 23.25 L 130.536 23.25 C 130.274 23.25 130.143 23.154 130.143 22.962 L 130.143 21.546 C 130.131 21.365 130.245 21.2 130.417 21.15 C 130.828 20.999 131.264 20.926 131.702 20.934 C 132.559 20.861 133.382 21.29 133.819 22.038 C 134.63 21.262 135.724 20.862 136.84 20.934 C 137.927 20.88 138.974 21.353 139.659 22.206 C 140.456 21.332 141.6 20.866 142.775 20.934 C 143.824 20.884 144.847 21.28 145.594 22.026 C 146.324 22.803 146.707 23.848 146.652 24.918 L 146.652 27.234 C 146.652 27.69 146.854 27.918 147.235 27.918 C 147.419 27.927 147.604 27.906 147.782 27.858 C 148.028 27.858 148.159 27.954 148.175 28.146 Z M 8.813 19.662 C 10.619 12.34 17.136 7.2 24.615 7.2 C 32.093 7.2 38.61 12.34 40.416 19.662 L 38.988 19.662 C 36.581 19.626 34.222 20.352 32.244 21.738 C 32.13 21.822 32.011 21.898 31.888 21.966 L 31.721 21.966 C 31.598 21.898 31.478 21.821 31.364 21.738 C 27.283 18.969 21.946 18.969 17.865 21.738 C 17.751 21.822 17.632 21.898 17.508 21.966 L 17.341 21.966 C 17.218 21.898 17.099 21.821 16.985 21.738 C 15.007 20.352 12.648 19.626 10.241 19.662 Z M 36.419 27.186 C 37.152 26.61 38.06 26.309 38.988 26.334 L 40.903 26.334 L 40.903 22.482 L 38.988 22.482 C 37.353 22.462 35.755 22.976 34.433 23.946 C 32.905 25.082 30.822 25.082 29.295 23.946 C 26.518 21.995 22.83 21.995 20.053 23.946 C 18.526 25.082 16.443 25.082 14.915 23.946 C 13.576 22.963 11.956 22.449 10.3 22.482 L 8.326 22.482 L 8.326 26.334 L 10.241 26.334 C 11.169 26.309 12.077 26.61 12.81 27.186 C 15.582 29.138 19.267 29.138 22.039 27.186 C 22.773 26.612 23.681 26.311 24.609 26.334 C 25.537 26.307 26.446 26.609 27.178 27.186 C 29.955 29.137 33.642 29.137 36.419 27.186 Z M 36.419 34.074 C 37.152 33.498 38.06 33.197 38.988 33.222 L 40.903 33.222 L 40.903 29.37 L 38.988 29.37 C 37.353 29.35 35.755 29.864 34.433 30.834 C 32.905 31.97 30.822 31.97 29.295 30.834 C 26.518 28.883 22.83 28.883 20.053 30.834 C 18.526 31.97 16.443 31.97 14.915 30.834 C 13.576 29.851 11.956 29.337 10.3 29.37 L 8.326 29.37 L 8.326 33.222 L 10.241 33.222 C 11.169 33.197 12.077 33.498 12.81 34.074 C 15.582 36.026 19.267 36.026 22.039 34.074 C 22.773 33.5 23.681 33.199 24.609 33.222 C 25.537 33.195 26.446 33.497 27.178 34.074 C 29.955 36.025 33.642 36.025 36.419 34.074 Z" fill="rgb(57,65,73)"></path></svg>